<?xml version="1.0" encoding="UTF-8"?>
<svg width="74px" height="60px" viewBox="0 0 74 60" version="1.1" xmlns="http://www.w3.org/2000/svg" xmlns:xlink="http://www.w3.org/1999/xlink">
    <title>C0B042A9-AC00-4AD9-8DCE-71C9DF54DEFA</title>
    <defs>
        <polygon id="path-1" points="0 0.000842865401 55.6767124 0.000842865401 55.6767124 51.3482474 0 51.3482474"></polygon>
    </defs>
    <g id="Driver-App" stroke="none" stroke-width="1" fill="none" fill-rule="evenodd">
        <g id="LoginApp_Welcome" transform="translate(-563.000000, -665.000000)">
            <g id="Stock-96x96-Copy" transform="translate(552.000000, 646.000000)">
                <g id="icon-stock" transform="translate(11.000000, 19.000000)">
                    <g id="Group-3" transform="translate(0.000000, 6.907171)">
                        <mask id="mask-2" fill="white">
                            <use xlink:href="#path-1"></use>
                        </mask>
                        <g id="Clip-2"></g>
                        <path d="M5.31427935,25.1411888 L5.31663047,20.070688 C5.31472718,18.685838 5.52196111,17.4176582 5.96912063,16.0801639 C6.034504,15.8846413 6.10447763,15.6884533 6.17691434,15.4970342 C6.26547297,15.2625845 6.36489152,15.0158246 6.48950057,14.7208217 C6.57884291,14.510438 6.78316592,14.3746923 7.01032834,14.3746923 C7.08858685,14.3746923 7.16471817,14.3906624 7.23693096,14.4223808 C7.40195678,14.4952443 7.52354297,14.6439657 7.56272821,14.8201911 L7.5654152,14.8323904 L7.57705881,14.9425174 L7.57381204,15.0007417 L7.57302833,15.0068414 C7.56675869,15.0621822 7.55265201,15.116303 7.53104415,15.1679839 C7.42815491,15.4094205 7.33153532,15.6497481 7.23480376,15.9039385 C6.75148186,17.1825432 6.50450292,18.355346 6.45748063,19.594469 L6.44874792,20.0739042 L6.44706856,25.1411888 L5.31427935,25.1411888 Z M14.1680156,2.10013223 L14.1680156,1.92923018 C13.1202023,1.71574125 12.0454073,1.60761049 10.9702764,1.60761049 C10.0260241,1.60761049 9.07796532,1.69145341 8.15241004,1.85669939 L7.77253716,1.93155915 L7.77253716,2.10013223 L14.1680156,2.10013223 Z M13.8013537,6.20000698 C13.7631761,5.33263194 13.734291,4.45339025 13.7153701,3.58035914 L8.22428696,3.58035914 C8.21185964,4.16215807 8.1891322,4.99703843 8.14804368,5.97365326 L8.13807944,6.20000698 L13.8013537,6.20000698 Z M17.3516481,25.1411888 L17.354559,19.7913225 C17.3582536,16.8673559 16.4328103,14.8480278 15.5377075,12.8953527 L15.5306542,12.8799371 C15.2457215,12.2571039 14.9765749,11.6687617 14.7407918,11.0594587 C14.371107,10.1008102 14.0908766,8.85048596 13.9071538,7.34075876 L8.03339888,7.34075876 C7.8496761,8.85092957 7.56933372,10.1012539 7.19920118,11.0593478 C6.95849187,11.6824028 6.67568642,12.2990254 6.40228543,12.8954636 C5.56383333,14.725036 4.69694394,16.617047 4.59551016,19.2528867 L4.58543396,19.7949823 L4.58297089,25.1411888 L2.99451337,25.1411888 L2.9970884,19.7923206 C2.99316987,16.5155705 4.0382961,14.2341778 4.96026873,12.2215039 C5.22460114,11.6456938 5.49789017,11.0504756 5.71889491,10.476329 C6.46083937,8.55370862 6.61578899,5.54312649 6.64635347,4.61863623 L6.6375088,4.58026367 L6.63179895,4.50218772 L6.63179895,4.34625762 L6.62866414,4.30843958 L6.62754456,4.27306141 L6.6274326,3.6189535 C6.40933877,3.51037913 6.24845539,3.30409891 6.19941786,3.05678446 L6.19740262,3.04602684 L6.1841916,2.90950482 L6.1841916,1.28510357 C6.1841916,0.913022855 6.43396949,0.592290389 6.79156276,0.505009459 C8.15778401,0.170524979 9.56375029,0.000842865401 10.9702764,0.000842865401 C12.3761307,0.000842865401 13.781985,0.170414076 15.1486541,0.504565846 C15.4492608,0.577983858 15.6820211,0.823523858 15.7415827,1.1301716 L15.7435979,1.14059651 L15.7564731,1.27401323 L15.7564731,2.89797087 C15.7564731,3.20384229 15.5829385,3.48342962 15.3118886,3.61806627 L15.3109929,4.31087945 L15.3078581,4.34525949 L15.3078581,4.49309364 C15.3078581,4.53634595 15.3030439,4.57926554 15.2934155,4.621187 C15.3245398,5.55077882 15.4815047,8.55892107 16.2209861,10.4756635 C16.4456854,11.0576843 16.7170712,11.64891 16.9795003,12.2205058 C17.8447103,14.1095224 18.8237814,16.247628 18.9330522,19.2246064 L18.9429045,19.7889935 L18.9414491,25.1411888 L17.3516481,25.1411888 Z M22.5084252,25.1411888 L22.5108882,20.070688 C22.508873,18.685838 22.7162189,17.4176582 23.1632664,16.0801639 C23.2285378,15.8845304 23.2985115,15.6883424 23.3710601,15.4970342 C23.4596188,15.2625845 23.5590373,15.0158246 23.6836464,14.7208217 C23.7727648,14.5105489 23.9771998,14.3746923 24.2044741,14.3746923 C24.2827327,14.3746923 24.358864,14.3906624 24.4309648,14.4223808 C24.5959906,14.4952443 24.7175768,14.6437438 24.756874,14.8199693 L24.759673,14.8323904 L24.7710927,14.9424065 L24.7679578,15.0005199 L24.7671741,15.0068414 C24.7607925,15.0625149 24.7465739,15.1168575 24.7248541,15.1685385 C24.6234203,15.4067588 24.5266887,15.6469755 24.4287257,15.9040494 C23.9456277,17.1826541 23.6986487,18.3554569 23.6515145,19.594469 L23.6428937,20.0737933 L23.6411024,25.1411888 L22.5084252,25.1411888 Z M31.3621614,2.10013223 L31.3621614,1.92923018 C30.3143481,1.71574125 29.2394411,1.60761049 28.1644222,1.60761049 C27.220058,1.60761049 26.2719992,1.69145341 25.3464439,1.85669939 L24.966571,1.93155915 L24.966571,2.10013223 L31.3621614,2.10013223 Z M30.9954995,6.20000698 C30.9572099,5.33052478 30.9283248,4.45128308 30.9094039,3.58035914 L25.4184328,3.58035914 C25.4061174,4.16027271 25.383278,4.99393314 25.3420775,5.97365326 L25.3321133,6.20000698 L30.9954995,6.20000698 Z M34.5457939,25.1411888 L34.5487048,19.7913225 C34.5523994,16.8676886 33.627068,14.8483605 32.7319653,12.8954636 L32.7271511,12.8847059 C32.4412108,12.2603201 32.1711686,11.6704252 31.9349376,11.0594587 C31.5653648,10.101032 31.2850224,8.85081867 31.1012996,7.34075876 L25.2274327,7.34075876 C25.0437099,8.85104048 24.7633676,10.1013648 24.393347,11.0593478 C24.1525257,11.6824028 23.8697203,12.2990254 23.5963193,12.8954636 C22.7578672,14.7254796 21.8910898,16.6173797 21.789544,19.2528867 L21.7794678,19.7949823 L21.7770047,25.1411888 L20.1886592,25.1411888 L20.1911222,19.7923206 C20.1872037,16.5153486 21.2324419,14.233956 22.1545265,12.2211712 C22.4184111,11.6463592 22.6912523,11.05225 22.9131527,10.476329 C23.655321,8.55282139 23.8100468,5.54246107 23.8404993,4.61841442 L23.8316546,4.58004186 L23.8259448,4.50218772 L23.8259448,4.34659033 L23.8229219,4.31542649 L23.8216904,4.27306141 L23.8215784,3.6189535 C23.6034846,3.51037913 23.4426012,3.30409891 23.3935637,3.05678446 L23.3915484,3.04613774 L23.3782254,2.90961572 L23.3782254,1.28510357 C23.3782254,0.913133758 23.6280033,0.592290389 23.9855966,0.505009459 C25.3520418,0.170524979 26.7578961,0.000842865401 28.1644222,0.000842865401 C29.5702765,0.000842865401 30.9761308,0.170414076 32.3426879,0.504565846 C32.6434066,0.577983858 32.8762789,0.823523858 32.9357285,1.1301716 L32.9377437,1.14059651 L32.9506189,1.27401323 L32.9506189,2.89797087 C32.9506189,3.20384229 32.7770843,3.48342962 32.5060344,3.61806627 L32.5051387,4.31121216 L32.5018919,4.3455922 L32.5018919,4.49309364 C32.5018919,4.53645685 32.4970778,4.57937644 32.4875613,4.6210761 C32.5186856,5.55066792 32.6755385,8.55881017 33.4151319,10.4756635 C33.6391595,11.0562425 33.910993,11.6481337 34.173758,12.2205058 C35.0388561,14.1095224 36.0179272,16.247628 36.1271981,19.2246064 L36.1371623,19.7889935 L36.1355949,25.1411888 L34.5457939,25.1411888 Z M39.702571,25.1411888 L39.7049221,20.070688 C39.7030188,18.6853943 39.9103647,17.4173255 40.3574122,16.0801639 C40.4226837,15.8846413 40.4925453,15.6884533 40.565206,15.4970342 C40.6524211,15.2660225 40.7517277,15.0192626 40.8776802,14.7209326 C40.9670226,14.510438 41.1713456,14.3746923 41.39862,14.3746923 C41.4767665,14.3746923 41.5530098,14.3906624 41.6251106,14.4223808 C41.7902484,14.4953552 41.9118346,14.6439657 41.9509079,14.8201911 L41.9537068,14.8323904 L41.9652385,14.9421847 L41.9621037,15.0007417 L41.961208,15.0075068 C41.9548264,15.0627367 41.9407197,15.1166357 41.9192238,15.1679839 C41.8163346,15.4094205 41.719715,15.6497481 41.6230954,15.9039385 C41.1396615,17.1826541 40.8926826,18.3554569 40.8456603,19.594469 L40.8370395,20.0737933 L40.8352482,25.1411888 L39.702571,25.1411888 Z M48.5561952,2.10013223 L48.5561952,1.92923018 C47.508382,1.71574125 46.4335869,1.60761049 45.358456,1.60761049 C44.4142038,1.60761049 43.4662569,1.69145341 42.5405897,1.85669939 L42.1607168,1.93155915 L42.1607168,2.10013223 L48.5561952,2.10013223 Z M48.1896453,6.20000698 C48.1513557,5.33307556 48.1224706,4.45394476 48.1035498,3.58035914 L42.6125786,3.58035914 C42.6000393,4.16226897 42.5773119,4.99726024 42.5362233,5.97365326 L42.5262591,6.20000698 L48.1896453,6.20000698 Z M51.7399397,25.1411888 L51.7428506,19.7913225 C51.7465452,16.8677995 50.8212138,14.8483605 49.926223,12.8954636 L49.921073,12.8843732 C49.6352447,12.2600983 49.3653144,11.6703143 49.1291953,11.0594587 C48.7592867,10.1009211 48.4790563,8.85048596 48.2953335,7.34075876 L42.4215785,7.34075876 C42.2379677,8.85092957 41.9575134,10.1012539 41.5873808,11.0593478 C41.3466715,11.6824028 41.0638661,12.2990254 40.7904651,12.8954636 C39.9521249,14.725036 39.0852356,16.617047 38.9836898,19.2528867 L38.9737256,19.7949823 L38.9711505,25.1411888 L37.382805,25.1411888 L37.3852681,19.7923206 C37.3814615,16.5155705 38.4264758,14.2341778 39.3484484,12.221393 C39.612333,11.6470246 39.8849503,11.0534699 40.1071865,10.476329 C40.849019,8.55404133 41.0039686,5.54323739 41.0346451,4.61863623 L41.0258004,4.58026367 L41.0199786,4.50218772 L41.0199786,4.34625762 L41.0169558,4.30832868 L41.0158362,4.27306141 L41.0157242,3.6189535 C40.7976304,3.51037913 40.636635,3.30409891 40.5878214,3.05667356 L40.5856942,3.04613774 L40.5723713,2.90961572 L40.5723713,1.28510357 C40.5723713,0.913022855 40.8221491,0.592290389 41.1798544,0.505009459 C42.5460756,0.170524979 43.9519299,0.000842865401 45.358568,0.000842865401 C46.7644223,0.000842865401 48.1702766,0.170414076 49.5368337,0.504565846 C49.8374405,0.577983858 50.0703127,0.823412954 50.1298743,1.1300607 L50.1320015,1.14059651 L50.1446527,1.27412414 L50.1446527,2.89797087 C50.1446527,3.20384229 49.9711181,3.48342962 49.7000682,3.61806627 L49.6991726,4.31087945 L49.6960378,4.34525949 L49.6960378,4.49309364 C49.6960378,4.53634595 49.6912236,4.57926554 49.6815952,4.621187 C49.7127195,5.55077882 49.8696843,8.55892107 50.6092777,10.4756635 C50.8338651,11.0576843 51.1052508,11.64891 51.3677919,12.2205058 C52.2325541,14.1086352 53.2119611,16.2470735 53.3212319,19.2246064 L53.3313081,19.7888826 L53.3296287,25.1411888 L51.7399397,25.1411888 Z M27.6117984,37.2061416 C25.855628,37.1135373 24.6916026,37.0057392 24.0531072,36.8768696 C22.8378051,36.6316623 20.7880813,35.8958186 20.4578058,35.5860656 C20.1524968,35.2980496 19.9890384,34.9165421 19.9969874,34.5111904 C20.0115419,33.695829 20.6821692,33.0754357 21.627541,33.0026831 C21.7074789,32.9968052 21.7920071,32.9941436 21.8944485,32.9941436 L22.2298741,32.9969161 L22.2723061,33.015437 C23.2444359,33.4415276 24.0956511,33.7273255 24.802105,33.8650675 C25.5111338,34.0032531 26.6026106,34.0955246 28.0459708,34.1394424 C29.3188192,34.085987 30.2742672,33.9939372 30.8857808,33.865622 C31.4967347,33.7376396 32.3457108,33.4508435 33.4093101,33.0134407 L33.4500627,32.9966943 C33.4500627,32.9966943 33.7087972,32.9952526 33.7091331,32.9952526 C33.7583945,32.9952526 33.8063125,32.995918 33.8541185,32.9972488 C34.9312646,33.0232002 35.6652601,33.6328359 35.6801505,34.5141848 C35.6860842,34.9192038 35.5260965,35.2949443 35.2294083,35.5723135 C35.0348256,35.7544168 33.4701032,36.5285222 31.8190612,36.876426 C30.7981179,37.0916893 29.5680373,37.203369 28.1629667,37.2082487 L27.6117984,37.2061416 Z M2.35568206,29.2483832 L2.35355486,34.4965511 C2.35232071,38.4072248 2.35030808,42.4510933 2.35948862,46.4276436 C2.36228757,47.8398867 3.21708551,48.6959496 4.70489295,48.7763546 L4.94392289,48.7826761 L50.7598609,48.7826761 C51.0556535,48.7826761 51.3615223,48.7826761 51.6550757,48.6985004 C52.7566286,48.3827586 53.3154101,47.5787094 53.3160818,46.3087552 C53.3187688,41.2993621 53.318433,35.9368528 53.3148503,29.43215 C53.3148503,29.3996553 53.3167536,29.3671607 53.3193286,29.3247956 C53.326382,29.2236517 53.3332114,29.1229515 53.2888761,29.0277964 L53.2437571,28.9601454 L2.37740187,28.9601454 L2.35904079,29.1612131 L2.35568206,29.2483832 Z M5.11555423,51.348314 C3.27004156,51.348314 1.8873625,50.727588 0.888362894,49.4506469 C0.634666478,49.1260328 0.489569146,48.7695895 0.33596302,48.3921854 L0.328237931,48.37311 C0.270579654,48.2325955 0.211018095,48.0872012 0.145746687,47.9466867 L0.0368117305,47.7287616 L-2.23915642e-05,47.6577835 L-2.23915642e-05,27.3474999 L0.0564043487,27.2622152 C0.423625992,26.7156835 0.952514724,26.6128761 1.42161798,26.5841522 L1.43538879,26.5837086 L18.5680698,26.5839304 L18.5694133,26.5861484 L18.9590265,26.5885883 C19.0127662,26.5885883 19.0657223,26.587812 19.1375992,26.5849285 L19.2729562,26.5850394 L19.3120295,26.5873684 C19.3471842,26.5893646 19.384802,26.5915827 19.4218601,26.5915827 C19.4454832,26.5915827 19.4732487,26.5908064 19.5033654,26.5872575 L19.5165764,26.5857048 L53.77231,26.5839304 L53.7726458,26.5749472 L53.8033223,26.5760562 C54.1020257,26.5858157 54.3841594,26.5952425 54.6687562,26.6224138 C55.1068471,26.6630045 55.3483402,26.9452535 55.5439305,27.2442489 L55.6440208,27.4029516 L55.6767124,27.4560743 L55.6767124,47.6511293 L55.5954311,47.745508 C55.5246737,47.8294618 55.4985875,47.9444686 55.4711579,48.0662405 C55.4609697,48.1129308 55.4480946,48.1696024 55.4278302,48.2259413 C55.1489433,49.015684 54.6964098,49.6692374 54.0449272,50.222756 C53.2146481,50.9285448 52.2343454,51.282881 50.9601535,51.3374454 L50.6161071,51.3446542 L22.0498459,51.3435451 C16.4065002,51.3435451 10.7639381,51.3446542 5.11566618,51.348314 L5.11555423,51.348314 Z" id="Fill-1" fill="#00758D" mask="url(#mask-2)"></path>
                    </g>
                    <path d="M61.7132429,1.55514212 L62.0191116,1.4949216 C62.7648627,1.36172669 63.528415,1.29418655 64.2890564,1.29418655 C65.1550501,1.29418655 66.0209319,1.38146748 66.8649819,1.55336766 L66.8649819,1.69110961 L61.7132429,1.69110961 L61.7132429,1.55514212 Z M62.00758,4.99358934 L62.0156409,4.81126424 C62.0486685,4.02484864 62.0670296,3.35210897 62.0771058,2.88343145 L66.5003352,2.88343145 C66.5156735,3.58700225 66.5388487,4.29523099 66.5696371,4.99358934 L62.00758,4.99358934 Z M59.1458262,15.9448508 L59.1539991,15.5082243 C59.2357283,13.3848689 59.9340092,11.8608352 60.6094507,10.3870407 C60.8295598,9.9066074 61.057394,9.40976042 61.2513049,8.9080337 C61.5494486,8.13614644 61.7753795,7.12903319 61.9233877,5.91253443 L66.654837,5.91253443 C66.8027333,7.12870048 67.0285522,8.13592463 67.326472,8.90814461 C67.5166883,9.40011183 67.7341104,9.87522175 67.9644076,10.3781684 L67.9684381,10.3870407 C68.6895584,11.9602046 69.4349736,13.5869348 69.4319507,15.9418564 L69.4295996,20.2514493 L70.7100612,20.2514493 L70.7114047,15.939971 L70.7033437,15.4853782 C70.6154568,13.0867607 69.8264901,11.3643209 69.1297766,9.84328159 C68.9182882,9.38281091 68.6996346,8.90659196 68.5188227,8.43780353 C67.9229832,6.8938072 67.7965829,4.47068008 67.7713924,3.72174981 C67.7793414,3.68803519 67.7831479,3.65343335 67.7831479,3.6186097 L67.7831479,3.49949951 L67.785611,3.47177368 L67.7863947,2.91370806 C68.0047124,2.80524459 68.1444358,2.5801108 68.1444358,2.33368358 L68.1444358,1.02557866 L68.1343596,0.918113318 L68.1326802,0.909684664 C68.0845384,0.662592018 67.8968971,0.464740455 67.6548443,0.405739877 C66.554075,0.136466563 65.4216217,5.54516711e-05 64.2891683,5.54516711e-05 C63.1560433,5.54516711e-05 62.023478,0.136577466 60.9229326,0.406072587 C60.6348652,0.476385306 60.433565,0.734790094 60.433565,1.03445092 L60.433565,2.34299946 L60.4444249,2.45312648 L60.4461043,2.46155513 C60.4854015,2.66084844 60.6150486,2.82709255 60.7908224,2.91448438 L60.7909344,3.44138616 L60.79183,3.46988832 L60.7941811,3.50027583 L60.7941811,3.62592932 L60.7988834,3.68881152 L60.8059367,3.71986445 C60.7814179,4.46458039 60.656473,6.88981468 60.0589541,8.43824715 C59.8799336,8.90326486 59.6602724,9.38136917 59.4477764,9.84405791 C58.7050483,11.4653539 57.8632374,13.3032441 57.8663722,15.9426327 L57.864245,20.2514493 L59.1439229,20.2514493 L59.1458262,15.9448508 Z" id="Fill-4" fill="#00758D"></path>
                    <path d="M61.2817127,11.6170142 C61.2236065,11.5915064 61.1622537,11.5785307 61.0992214,11.5785307 C60.9161704,11.5785307 60.7515924,11.6879923 60.6796035,11.8574526 C60.5781697,12.0978911 60.4981199,12.2966299 60.4279223,12.4827257 C60.3693684,12.6368813 60.3131656,12.7949186 60.2605454,12.9524013 C59.9003771,14.0294946 59.733448,15.0510253 59.7350154,16.1669347 L59.7330002,20.2513939 L60.6454564,20.2513939 L60.6469118,16.1694855 L60.6538532,15.78332 C60.691695,14.78519 60.890644,13.8405153 61.2800333,12.810556 C61.3579559,12.6057175 61.4357666,12.4121912 61.5186154,12.2176667 C61.5359689,12.1762997 61.5472766,12.1328256 61.5524267,12.0883534 L61.5532104,12.0829191 L61.5556734,12.0356743 L61.5463809,11.9472843 L61.5442537,11.9374139 C61.5126816,11.7954577 61.4147185,11.6756821 61.2817127,11.6170142" id="Fill-6" fill="#00758D"></path>
                    <path d="M72.5744723,22.0733362 L72.4938627,21.9454646 C72.336338,21.7045826 72.1417553,21.4772307 71.7887523,21.4446251 C71.5596866,21.4227772 71.3321884,21.4151248 71.091703,21.4071398 L71.0669603,21.4062526 L71.0667364,21.4135722 L54.7800087,21.4145703 L54.7800087,23.3277639 L70.6408488,23.3277639 L70.6773471,23.3822174 C70.7130616,23.4588516 70.7074637,23.539922 70.7017539,23.6214359 C70.6997386,23.6557051 70.6982832,23.6817674 70.6982832,23.7079405 C70.7010821,28.9476798 70.701418,33.2674759 70.6991789,37.302694 C70.698731,38.3256665 70.2485486,38.9734529 69.361171,39.2277542 C69.124828,39.2954053 68.8782969,39.2954053 68.6400507,39.2954053 L57.308688,39.2954053 L57.308688,41.3588729 L68.5242863,41.3592056 L68.8013819,41.3534386 C69.8278112,41.30941 70.6175616,41.0241666 71.2862857,40.4555652 C71.8111439,40.0096228 72.1755666,39.4831646 72.4002659,38.8470231 C72.4166118,38.8015527 72.4271358,38.7559714 72.4351968,38.7183752 C72.4572525,38.6203366 72.4783005,38.5276215 72.5352871,38.4600813 L72.6007824,38.3838907 L72.6007824,22.1161449 L72.5744723,22.0733362 Z" id="Fill-8" fill="#00758D"></path>
                    <path d="M53.0145459,1.69105416 L47.8625829,1.69105416 L47.8625829,1.55508666 L48.1686756,1.49486615 C48.9142027,1.36167124 49.677867,1.294242 50.4385084,1.294242 C51.3046141,1.294242 52.1704959,1.38141203 53.0145459,1.55342311 L53.0145459,1.69105416 Z M48.157032,4.99353389 L48.165093,4.81131969 C48.1982325,4.02213151 48.2167055,3.35050087 48.2266698,2.88337599 L52.6497873,2.88337599 C52.6650135,3.58495054 52.6883008,4.29317928 52.7190892,4.99353389 L48.157032,4.99353389 Z M56.8529077,15.4854337 C56.7649088,13.0872598 55.976278,11.3650418 55.2793406,9.84333704 C55.0677403,9.38231185 54.8487508,8.90553838 54.6682748,8.43774808 C54.0724353,6.89364085 53.9461469,4.47051372 53.9210683,3.72169436 C53.9286814,3.68809064 53.9326,3.6534888 53.9326,3.61866515 L53.9326,3.49988767 L53.9352869,3.47216184 L53.9358467,2.91365261 C54.1542764,2.80530004 54.2941118,2.58016626 54.2941118,2.33362813 L54.2941118,1.02552321 L54.2838116,0.917946963 L54.2820203,0.909629213 C54.2342143,0.662758373 54.046573,0.464795907 53.8044083,0.405684426 C52.703527,0.136411111 51.5710737,-1.26082503e-14 50.4385084,-1.26082503e-14 C49.3056073,-1.26082503e-14 48.1731539,0.136522014 47.0724966,0.406017136 C46.7844292,0.476440758 46.583129,0.734845545 46.583129,1.03439547 L46.583129,2.34305491 L46.5938769,2.45307103 L46.5955563,2.46161058 C46.6350774,2.66079299 46.7647246,2.8270371 46.9402744,2.91442893 L46.9403864,3.44133071 L46.941394,3.47548894 L46.9437451,3.50055309 L46.9437451,3.62587387 L46.9484474,3.68864516 L46.9555007,3.71958719 C46.9471039,3.97510849 46.9269515,4.42848136 46.8798172,4.97656567 C47.8379522,5.05630518 48.7901535,5.2095736 49.7246654,5.43803448 C50.036132,5.51422508 50.3102048,5.68301996 50.5182224,5.91247898 L52.804401,5.91247898 C52.9522973,7.12886684 53.1782282,8.13598009 53.475924,8.90808915 C53.6661404,9.40027819 53.8837863,9.87538811 54.1139716,10.3784457 L54.1178901,10.3869852 C54.8390105,11.9601491 55.5844256,13.5868794 55.5814027,15.9418009 L55.5789397,20.2513939 L56.8597371,20.2513939 L56.8608567,15.9400265 L56.8529077,15.4854337 Z" id="Fill-10" fill="#00758D"></path>
                    <path d="M36.7263179,1.58221362 L37.031291,1.52210401 C37.774579,1.38946361 38.5357802,1.32203438 39.2940705,1.32203438 C40.1573772,1.32203438 41.0203481,1.4089826 41.861823,1.58043917 L41.861823,1.71773751 L36.7263179,1.71773751 L36.7263179,1.58221362 Z M37.0197594,5.00979232 L37.0277084,4.82813264 C37.0607359,4.04404601 37.078985,3.3734135 37.0890613,2.90617772 L41.498296,2.90617772 C41.5135223,3.60775226 41.5366975,4.31365204 41.567374,5.00979232 L37.0197594,5.00979232 Z M33.7223777,11.5986708 C33.7682804,12.8139496 33.9094592,14.3068195 34.1739036,15.5583637 L34.1751351,15.4912672 C34.2566404,13.374566 34.9526822,11.855412 35.6259965,10.3861645 C35.8455458,9.907173 36.0725962,9.41210048 36.2659474,8.91192641 C36.5630834,8.14236812 36.7883426,7.13847107 36.935791,5.92585392 L41.65235,5.92585392 C41.6577239,5.96999345 41.6639936,6.01180401 41.6694795,6.05549993 C42.087642,5.97187881 42.5083794,5.90234241 42.9312441,5.84733436 C42.817383,4.93670701 42.7783097,4.12245467 42.7654346,3.74205621 C42.7732716,3.70834159 42.7770782,3.67385066 42.7770782,3.63913791 L42.7770782,3.52047133 L42.7795413,3.4928564 L42.780325,2.93656524 C42.997971,2.82843448 43.1373585,2.60396611 43.1373585,2.35820431 L43.1373585,1.05431371 L43.1271703,0.947070181 L43.125379,0.938641527 C43.077573,0.692547011 42.8906034,0.495249965 42.6492224,0.43636029 C41.5519238,0.168085105 40.4230531,0.0318958012 39.2941824,0.0318958012 C38.16464,0.0318958012 37.0357693,0.168196009 35.9385827,0.436803904 C35.6514109,0.506894816 35.4507825,0.764412376 35.4507825,1.06307508 L35.4507825,2.36763109 L35.4615305,2.4773145 L35.4632098,2.48574315 C35.5023951,2.68437104 35.6317063,2.85017153 35.8068084,2.93723066 L35.8069203,3.46246889 L35.807816,3.49086014 L35.8101671,3.52124766 L35.8101671,3.64645753 L35.8148693,3.70911792 L35.8220346,3.74005995 C35.7974039,4.48244692 35.6730188,6.90002888 35.0772912,8.4435816 C34.8989424,8.90715757 34.6799529,9.38370923 34.4680168,9.84495623 C34.2190226,10.3886044 33.9593924,10.9578713 33.7238332,11.5724976 C33.7230495,11.581259 33.7233853,11.5900203 33.7223777,11.5986708 L33.7223777,11.5986708 Z" id="Fill-12" fill="#00758D"></path>
                    <path d="M22.9195343,1.58221362 L23.2245074,1.52210401 C23.9676834,1.38946361 24.7289965,1.32203438 25.4873988,1.32203438 C26.3505936,1.32203438 27.2136764,1.4089826 28.0551513,1.58043917 L28.0551513,1.71773751 L22.9195343,1.71773751 L22.9195343,1.58221362 Z M23.2129757,5.00979232 L23.2209247,4.82813264 C23.2540642,4.04138433 23.2724253,3.37197176 23.2823896,2.90617772 L27.6916243,2.90617772 C27.7067386,3.6056451 27.7299139,4.31154487 27.7607023,5.00979232 L23.2129757,5.00979232 Z M20.3583872,20.1465459 L20.3604025,15.9264519 L20.3684634,15.4912672 C20.4499687,13.3747878 21.1458985,11.8557447 21.8192128,10.3861645 C21.9282597,10.1483878 22.039098,9.90672939 22.1466895,9.66218752 L22.1466895,8.19227462 C22.1466895,7.49879602 22.4967815,6.87574105 23.0483977,6.50942731 C23.0771709,6.3200044 23.1044886,6.12692168 23.1290073,5.92585392 L25.194741,5.92585392 C26.1762752,5.7690366 27.1700128,5.68807716 28.1644222,5.68807716 C28.4791356,5.68807716 28.793849,5.69783665 29.1082266,5.71380673 C29.0069047,4.85774383 28.9709663,4.10360111 28.9587629,3.74194531 C28.966488,3.7084525 28.9702945,3.67396156 28.9702945,3.63913791 L28.9702945,3.52069314 L28.9728696,3.49307821 L28.9736533,2.93656524 C29.1912993,2.82843448 29.3305748,2.60396611 29.3305748,2.35820431 L29.3305748,1.05420281 L29.3203866,0.947070181 L29.3185953,0.93875243 C29.2707893,0.692657914 29.0839317,0.495360868 28.8424387,0.43636029 C27.7451401,0.168085105 26.6162695,0.0318958012 25.4873988,0.0318958012 C24.3579683,0.0318958012 23.2289857,0.168196009 22.1317991,0.436803904 C21.8446273,0.507005719 21.6439988,0.76452328 21.6439988,1.06307508 L21.6439988,2.36763109 L21.6547468,2.4773145 L21.6564262,2.48585405 C21.6957234,2.68437104 21.8250346,2.85017153 22.0000247,2.93723066 L22.0001367,3.46246889 L22.0012562,3.49651621 L22.0034954,3.52146946 L22.0034954,3.64645753 L22.0081976,3.70900701 L22.015251,3.73983814 C21.9908442,4.48189241 21.866571,6.89903075 21.2706195,8.4435816 C21.0924946,8.90615944 20.8733932,9.38326561 20.661457,9.84473442 C19.92108,11.4610397 19.0817322,13.2929411 19.084867,15.9242338 L19.0828518,20.2194094 L20.3278227,20.2194094 C20.3378989,20.1948997 20.3480871,20.1707228 20.3583872,20.1465459 L20.3583872,20.1465459 Z" id="Fill-14" fill="#00758D"></path>
                    <path d="M9.11286257,1.58221362 L9.41783567,1.52210401 C10.1610117,1.38946361 10.9223248,1.32203438 11.6806151,1.32203438 C12.5439219,1.32203438 13.4068927,1.4089826 14.2483677,1.58043917 L14.2483677,1.71773751 L9.11286257,1.71773751 L9.11286257,1.58221362 Z M9.40630401,5.00979232 L9.41425302,4.82813264 C9.44728057,4.0438242 9.4655297,3.3734135 9.4756059,2.90617772 L13.8848406,2.90617772 C13.9000669,3.60730865 13.9232422,4.31320842 13.9538067,5.00979232 L9.40630401,5.00979232 Z M7.84964251,2.48585405 C7.88893971,2.68437104 8.01825099,2.85017153 8.19335301,2.93723066 L8.19346497,3.46246889 L8.19436063,3.49086014 L8.19671175,3.52124766 L8.19671175,3.64645753 L8.20141398,3.70911792 L8.20857928,3.74005995 C8.19570413,4.12899797 8.1551754,4.97807396 8.03403704,5.92019785 C9.00459936,5.76692943 9.98725313,5.68807716 10.9702428,5.68807716 C11.9644282,5.68807716 12.9582777,5.7690366 13.9403717,5.92585392 L14.0388946,5.92585392 C14.0395664,5.93150999 14.040462,5.93694426 14.0411338,5.94248942 C14.4857183,6.01601834 14.9279516,6.1042974 15.3663785,6.20965557 C15.2146756,5.15751557 15.1664218,4.17225028 15.1519792,3.74205621 C15.1598163,3.70834159 15.1636228,3.67385066 15.1636228,3.63913791 L15.1636228,3.52047133 L15.1660859,3.4928564 L15.1668696,2.93656524 C15.3845156,2.82843448 15.5239031,2.60396611 15.5239031,2.35820431 L15.5239031,1.05420281 L15.513603,0.947070181 L15.5118117,0.93875243 C15.4641176,0.692657914 15.27726,0.495360868 15.035767,0.43636029 C13.9383565,0.168085105 12.8095978,0.0318958012 11.6806151,0.0318958012 C10.5511847,0.0318958012 9.42220202,0.168196009 8.32512736,0.436803904 C8.03795556,0.506894816 7.83732715,0.764412376 7.83732715,1.06307508 L7.83732715,2.36752019 L7.84796314,2.47720359 L7.84964251,2.48585405 Z" id="Fill-16" fill="#00758D"></path>
                </g>
            </g>
        </g>
    </g>
</svg>